<?xml version="1.0" encoding="UTF-8"?>
<svg xmlns="http://www.w3.org/2000/svg" version="1.2" baseProfile="tiny-ps" width="1563" height="1563" viewBox="0 0 1563 1563">
  <rect x="0" y="0" width="1563" height="1563" fill="#000000"/>
  <path fill="#0EA071" d="M929.87,655.88c-23.14,13.79-47.78,24.79-73.74,32.26c-2.24,33.43-6.87,66.85-15.22,99.28     c-10.04,39.01-26.18,79.87-58.56,105.51c-24.01-16.78-39.06-44.53-49.38-71.42c-16.15-42.09-23.8-88.46-26.09-133.42     c-21.06-6.1-42.46-14.12-61.57-24.93c-2.24-1.27-12.39-6.78-12.39-8.66l38.69-42.6c27.57,13.34,55.3,27.11,85.14,34.8     c20.03,5.16,27.57,5.28,47.64,0.21c29.74-7.52,58.22-20.47,85.09-34.93l39.54,40.47L929.87,655.88z"/>
  <path fill="#0E9F71" d="M476.13,573.14c-0.5,6.43,0.18,12.96-0.09,19.4c-3.33,79.39,5.47,169.79,23.64,247.28     c17.08,72.86,45.49,148.43,98.06,202.94c6.11,29.15,13.94,58.22,27.12,84.98l-7.35,12.24c-97.9-110.33-163.41-253.67-182.36-400.63     c-9.04-70.09-4.84-141.04-3.15-211.37c45.11-3.48,89.82-11.81,134.22-20.28c6.75-1.29,40.64-9.77,44.15-8.59     c0.79,0.27,1.32,0.67,1.5,1.53l6.19,42.9l-1.01,2.99L476.13,573.14z"/>
  <path fill="#0E9F71" d="M1131,528c1.12,18.82,0.57,37.64,0.95,56.55c1.1,54.25,2.41,106.81-5.1,160.81     c-20.28,145.76-84.77,284.51-181.36,394.62l-7.35-12.24c7.16-15.32,13.35-31.74,18.12-47.98c2.49-8.47,6.51-33.54,9.26-38.74     c0.62-1.17,5.26-4.08,6.99-6.01c91.1-101.73,115.1-289.52,115.53-421.47l-1.14-40.45l-140.94-26.56l-1.01-2.99l6.19-42.9     c0.18-0.85,0.7-1.26,1.5-1.53c3.4-1.14,41.96,8.2,49.17,9.57C1044.54,516.82,1087.59,524.81,1131,528z"/>
  <path fill="#FDFDFD" d="M772,1051c-30.62-15.76-61.9-33.98-88.48-56.03c-25.52-21.16-28.28-33.46-36.45-64.55     c-14.2-53.99-23.86-110.82-21.12-166.97c0.21-4.31,0.62-11.75,1.28-15.72c1.5-8.97,22.32-27.29,21.63-32.01l-29.88-42.22     c0.61-1.44,1.89-0.06,2.7,0.29c23.24,10.3,46.04,21.84,71.21,27.3c2.37,74.66,21.37,155.21,79.1,206.4L772,1051L772,1051z"/>
  <path fill="#FDFDFD" d="M792,906.5c57.9-49.6,76.61-130.94,78.48-204.52L944,673.51l-29.68,42.98l21.22,27.47     c7.14,57.13-1.86,115.37-15.23,170.87c-9.45,39.22-11.78,57.48-44.42,83.57c-20.89,16.71-47.11,33.84-70.88,46.13     c-4.04,2.09-8.61,4.92-13.02,5.48V906.5H792z"/>
  <path fill="#0E9F71" d="M888,1125v28.5c0,3.32,16.39,22.1,15.85,24.86c-34.85,34.55-78.33,60.44-121.42,83.64     c-2.77,0.18-25.74-13.3-30.11-15.82c-25.01-14.45-51.52-31.86-73.81-50.19c-3.13-2.57-18.35-14.98-18.57-17.52     c-0.34-3.77,15.05-21.54,15.05-23.95v-29.5l59.69,43.82l46.82,28.81C819.28,1176.94,853.97,1151.23,888,1125z"/>
  <path fill="#FCFCFC" d="M856.96,601.96c-18.18,8-36.49,16.51-55.75,21.76c-18.03,4.92-22.4,4.92-40.44,0     c-19.27-5.26-37.86-13.62-55.8-22.22c0.01-1.11,13.01-16.55,14.04-17.05c1.15-0.56,6.47,2.16,10.42,1.51     c1.1-0.18,6.03-2.63,6.34-3.16c1.35-2.31-0.52-22.12,0.27-27.24c1.64-10.49,29.47-37.54,38.46-44.54c7.24-5.63,8.23-4.61,15,0.95     c8.64,7.08,35.83,34.48,37.41,44.59c0.84,5.37-1.23,23.51,0.55,26.45c5.33,4.57,10.51,2.96,16.51,1.42     C845.34,587.86,858.75,599.35,856.96,601.96z"/>
  <path fill="#F9F9F9" d="M933.52,932.01c36.95,31.06,22.06,87.82,11.2,128.21c-6.96,25.88-15.78,51.26-24.56,76.55     c2.15,7.76,27.3,34.13,12.83,40.72c-13.41,6.1-22.43-24.76-30.46-31.53l-0.61-2.43c7.86-22.55,14.86-45.44,20.4-68.69     c5.36-22.52,16.36-67.06,10.84-88.48c-2.41-9.33-7.79-16.1-13.11-23.8L933.52,932.01z"/>
  <path fill="#F8F8F8" d="M630.98,932.01l12.99,30.53c-15.16,17-16.28,33.05-13.84,54.83c4.73,42.14,18.39,86.12,31.79,126.15     c-6.91,10.92-13.12,23.77-22.01,32.91c-10.74,5.41-14.74-2.93-12.69-12.7c1.27-6.06,16.82-23.86,16.55-27.06     c-8.04-22.59-16-45.35-22.49-68.45c-10.38-36.93-26.77-95.47,0.32-128.11C622.81,938.65,629.59,930.99,630.98,932.01z"/>
  <path fill="#F9F9F9" d="M983.76,722.23c-3.1-3.08-39.4-0.23-46.27-1.23c-2.64-1.25-7.39-6.99-6.02-9.98     c0.59-1.29,13.22-15.53,14.24-15.83l50.84-0.25l3.51,1.49l10.11,136.9c6.06,3.62,13.43,5.52,19.85,9.15     c6.12,3.45,18.29,11.51,15.79,19.8c-2.29,7.61-15.09-4.38-19.12-6.47c-7.5-3.87-16.97-6.28-25.31-7.69     c-2.91-0.49-9.96,0.92-11.21-2.79L983.76,722.23z"/>
  <path fill="#F9F9F9" d="M552.75,834.76L562.49,697c1.57-1.81,3.76-1.84,5.95-2.04c15.53-1.39,33.76,0.71,49.53,0.56     c1.46,0.66,13.45,14.68,13.84,16.24c0.83,3.34-3.01,6.14-4.81,8.75l-46.58,1.42l-1.67,2.33l-5.5,120.5     c-2.5,4.71-7.62,2.62-11.65,3.35c-8.42,1.54-17.71,3.73-25.31,7.69c-4.17,2.17-14.02,11.98-17.83,8.21     c-1.23-1.66-1.58-3.2-1.31-5.25C518.71,847.38,542.86,837.51,552.75,834.76z"/>
  <path fill="#0E9E70" d="M725.94,454.04l15.05,48.94c-25.14,9.77-49.91,21.31-76,28.52c-2.02,0.56-8.74,3.02-10.05,2.08l-3.49-52.62     L725.94,454.04z"/>
  <path fill="#0E9F71" d="M912.86,481.14L909,534c-10.12-1.57-84.8-28.13-85.86-32.6l14.92-47.37L912.86,481.14z"/>
  <path fill="#F6F6F6" d="M753,510c-6.36-39.69-24.39-83.62-48.61-115.89c-16.43-21.88-53.6-60.73-79.14-69.86     c-7.34-2.63-31.72-5.06-33.23-12.76c-2.71-13.83,12.78-11.99,21.77-9.78c39.25,9.62,94.84,72.45,113.72,107.28     c12.31,22.71,26.24,57.11,32.98,82.02C763.36,501.57,766.25,506.59,753,510z"/>
  <path fill="#F5F5F5" d="M810,509.01c-3.41,0.42-10.03-2.57-10.06-6.44c-0.04-6.35,8.43-28.76,11.05-36.07     c20.59-57.49,66.47-132.29,123.64-159.36c7.44-3.52,37.3-14.15,37.04,1.2c-0.19,11.37-17.83,11.42-26.1,13.75     c-39.08,11.04-85.74,65.3-104.75,100.25C826.31,449.04,814.76,478.84,810,509.01z"/>
  <path fill="#F8F8F8" d="M638,474l6.02,65.22c19.12,14.28,39.12,28.05,60.97,37.79l-7.98,11.51c-0.61,0.87-1.38,1.45-2.49,1.46     c-2.79,0.04-31.5-17.07-36.05-19.96c-10.61-6.73-21.33-13.87-29.97-23.03l-5.94-56.06c-16.21-2.44-35.47-9.04-36.57-28.47     c-0.24-4.17,1.73-11.55,7.03-10.07c5.19,1.45,19.36,21.6,26.47,21.6H638V474z"/>
  <path fill="#F7F7F7" d="M945.49,474c7.8-1.57,21.2-21.13,26.23-21.87c5.7-0.83,6.58,8.17,6.15,12.27     c-1.81,17.19-20.6,24.95-35.74,25.75l-6.69,56.81c-18.24,18.78-42.95,31.06-65.99,43.07c-1.77-0.04-10.28-11.84-9.45-13     c21.61-10.16,41.51-23.66,60.51-38L926,474C931.75,473.21,940.15,475.07,945.49,474z"/>
  <path fill="#0E9E70" d="M810.87,435.16L794.99,489c-1.98,1.66-9.61-6.87-12.49-6.96c-3.14-0.1-11.47,8.7-13.5,6.96l-15.88-53.84     l28.44-17.19L810.87,435.16z"/>
<title>Title</title></svg>
